<svg width="107" height="36" viewBox="0 0 107 36" fill="none" xmlns="http://www.w3.org/2000/svg">
<g filter="url(#filter0_d)">
<path d="M19.6596 27.1777C16.7496 27.1777 13.7331 27.1523 10.6811 27.1013L9.98903 27.0928C8.54287 27.0674 6.90154 27.0419 5.47313 26.9994C4.67464 26.974 4.01811 26.3711 4.00036 25.607C3.98262 24.8174 4.62141 24.1721 5.44651 24.1467C5.44651 24.1467 5.44651 24.1467 5.45538 24.1467C5.75704 24.1382 5.95222 23.841 5.83688 23.5778C5.06501 21.8543 4.66577 19.9694 4.66577 18.0421C4.66577 15.045 5.62395 12.1752 7.43386 9.73847C8.99535 7.64135 11.0892 6.0027 13.5112 4.96688C13.5467 4.71216 13.6 4.47443 13.6798 4.26217C13.9549 3.50653 14.3896 2.52164 15.2591 1.67261C16.3947 0.560365 17.9029 0 19.7483 0C21.6026 0 23.1286 0.577346 24.2731 1.70657C25.3378 2.75938 25.6926 3.95652 25.7991 4.415C25.8346 4.5933 25.8612 4.78858 25.879 5.01782C28.2744 6.07063 30.3327 7.70078 31.8676 9.78092C33.6598 12.2092 34.6091 15.0619 34.6091 18.0421C34.6091 19.9779 34.2098 21.8712 33.438 23.6203C33.3315 23.8665 33.509 24.1467 33.7929 24.1551C33.8017 24.1551 33.8017 24.1551 33.8106 24.1551C34.6091 24.1806 35.2656 24.7834 35.2834 25.5476C35.3011 26.3372 34.6623 26.9824 33.8372 27.0079C32.3378 27.0504 30.6965 27.0843 28.8334 27.1183C25.7902 27.1692 22.8358 27.1947 20.0411 27.1947L19.6596 27.1777Z" fill="white"/>
<path d="M14.8868 6.0791L12.4204 7.26776L10.7347 8.49037L8.8538 10.4771L7.72704 12.2176L6.96404 13.9582L6.36074 16.5223L6.28976 18.8402L6.60916 20.9288L7.26569 23.2467L8.86267 25.5815H30.5461L31.7882 23.1618L32.6931 20.8184L33.0125 17.3119L32.4447 14.3487L31.451 12.0394L30.0315 9.99317L28.3103 8.30358L26.8287 7.08097L24.3356 6.21495L14.8868 6.0791Z" fill="#008BCA"/>
<path d="M32.7375 19.6213C32.8173 19.1203 32.773 18.6873 32.5867 18.2968C32.3471 17.8043 31.9124 17.4477 31.3623 17.2779C30.3065 16.9638 27.0948 15.2827 25.1075 14.1874C24.9478 14.0516 24.7969 13.9242 24.655 13.8139L24.6816 13.5167C24.9389 12.9818 25.143 12.4129 25.2938 11.8186C25.3293 11.7846 25.3648 11.7507 25.4002 11.7167C25.7906 11.3262 26.0745 10.7488 26.1455 10.2139C26.7133 9.22904 26.7666 8.08284 26.6069 7.25927L24.9744 6.29137C24.9744 6.29137 24.6994 6.22345 24.2912 6.12156C24.2291 6.10458 24.3888 6.30835 24.1493 7.14041C24.1138 7.25927 24.1138 8.49038 24.0783 8.62623C24.0251 8.81302 24.0694 9.96771 24.0073 10.1715C23.9718 10.2988 23.9097 11.1309 23.8742 11.2667C23.8121 11.4875 23.4661 12.2601 23.404 12.4894C23.3419 12.7101 23.1911 13.3554 23.1379 13.5846C23.0935 13.7629 23.1201 14.5695 23.0669 14.7478C22.9959 15.028 23.8831 14.7308 23.8033 15.0025C23.75 15.2063 24.6905 15.8091 24.8768 15.9025C26.4915 16.743 27.2545 17.0572 27.1658 16.9298L28.5765 17.7024C29.6766 18.2628 30.4485 18.4496 31.1316 18.7298C31.2026 18.9845 31.2647 19.4345 31.2647 20.0798L31.6018 21.4297L31.939 22.5929L32.4536 21.608L32.7907 19.9439L32.7375 19.6213Z" fill="#047FA6"/>
<path d="M9.61675 25.6155H10.3176C10.6991 25.6155 11.9501 25.5645 12.509 25.5645C13.2898 25.5645 15.0287 25.6155 15.428 25.6155H16.2708C16.6346 25.6155 18.0275 25.5815 18.5509 25.5815C18.9147 25.5815 19.793 25.6155 19.9882 25.6155H20.8311C21.0529 25.6155 22.3127 25.5985 22.641 25.5985C23.1467 25.5985 24.2912 25.6155 24.5485 25.6155H26.1188C26.2342 25.6155 26.6689 25.6155 26.7842 25.6155H27.5206C27.7247 25.6155 28.3901 25.6155 28.5853 25.6155H29.3217C29.3749 25.6155 29.5878 25.6155 29.6411 25.6155H30.3242L30.8565 24.9957L31.8946 23.0514L31.2292 20.0288L31.1493 18.7637L28.3546 17.5241L25.7196 16.1402L23.9984 15.2912L23.0846 14.7648L16.2619 14.9091L15.9425 14.994L15.0465 15.5119L13.76 16.3779L11.6307 17.1506L9.01345 18.3307L8.58759 18.7722V19.3071L8.47225 19.7911L7.47857 22.9835L7.38098 23.1872L8.86262 25.5985C9.17314 25.607 9.52803 25.6155 9.61675 25.6155Z" fill="#293F6E"/>
<path d="M28.47 21.9901C28.47 21.9901 28.3546 24.6136 29.5257 25.5561C29.6588 25.6664 27.6626 25.5561 27.6626 25.5561L27.7602 24.325L28.47 21.9901Z" fill="#203456"/>
<path d="M15.3037 7.53953L15.0553 6.36786L15.0997 4.63582L15.774 3.40471L16.954 2.22454L18.267 1.68116L20.0414 1.43494L21.461 1.70663L22.6055 2.25851L23.5725 3.2349L24.2646 4.28771L24.3533 5.60372L24.1581 7.15746L24.7614 6.90275L25.0098 7.20841L25.1163 8.11688L24.9921 8.94045L24.442 9.84892V10.5112L23.9718 10.8847L23.6613 11.8781L23.058 13.4234L22.3216 14.2045L21.9401 14.6545L21.0529 15.512L19.4736 15.5969L18.0097 15.1894L17.1137 14.213L16.12 12.9734L15.5522 11.0206L15.1707 10.7744L14.8868 10.3923V9.80647L14.3722 8.6263L14.2923 7.53104L14.5851 6.96219L14.9666 7.00464L15.3037 7.53953Z" fill="#FFCDAF"/>
<path d="M24.9301 7.08098L24.2913 6.89419L24.3534 5.03479L23.9541 3.7018L22.8274 2.40277L21.6297 1.78297L19.8996 1.44336L18.6309 1.51128L18.0808 1.74901C20.8134 2.0292 22.9161 4.27066 21.0175 7.7687C21.0175 7.7687 20.4497 8.08284 19.9794 8.05737C19.9794 8.05737 19.8641 8.43944 20.2101 8.63472C20.2101 8.63472 20.7957 11.9884 19.3052 12.0648L18.622 11.9629L18.4091 11.8016C18.4091 11.8016 18.6131 12.3365 18.9414 12.3365C18.9414 12.3365 19.1721 12.6676 19.6867 12.6846C19.8197 12.6846 19.4116 13.1007 19.5891 13.0497C19.5891 13.0497 20.4319 13.1601 19.7576 13.9667C19.4737 13.9582 19.1721 13.8988 18.8527 13.7799C18.8083 13.7629 18.7728 13.8139 18.8083 13.8478C18.9325 13.9837 19.7488 13.9412 19.2253 14.3572C19.0656 14.4506 19.1366 14.595 19.2874 14.5695C19.3584 14.561 19.4205 14.5525 19.4915 14.5525C19.6157 14.5355 19.7665 14.6119 19.8907 14.6204L20.3255 15.5374L21.3812 15.2912L21.6918 14.9346L22.7475 14.8412L23.0936 14.4167L22.9693 13.211L23.5194 12.2346L23.9453 10.8167L24.2026 10.7064L24.5575 9.80639L25.072 8.50736L24.9301 7.08098Z" fill="#EBBBA1"/>
<path d="M19.2696 9.37334C19.2696 9.37334 19.2075 9.13561 19.2252 8.90637C19.2252 8.90637 18.9857 9.05071 18.8615 9.31391C18.6574 9.15259 18.2759 8.95731 17.8234 8.97429C17.3 8.99128 16.9274 9.22052 16.7144 9.30542C16.6612 9.3224 16.6612 9.39881 16.7144 9.4158C17.0161 9.52617 17.6904 9.74692 18.3735 9.69598C18.3735 9.69598 18.551 9.70447 18.7728 9.69598C18.8703 9.78937 19.0212 10.0101 18.9413 10.4007C18.8349 10.9016 18.3291 11.012 18.2848 11.479L18.267 11.5044C18.2404 11.5384 18.2049 11.5724 18.1606 11.6063C18.0807 11.6657 17.992 11.7082 17.8944 11.7591C17.7081 11.8525 17.504 11.9544 17.3355 12.1072C17.1669 12.2601 17.0516 12.4554 17.0072 12.6591C16.9628 12.8629 16.9895 13.0667 17.0516 13.2535C17.0782 13.0582 17.1048 12.8714 17.1758 12.6931C17.2379 12.5233 17.3443 12.3705 17.4863 12.2431C17.6283 12.1157 17.8057 12.0054 17.9831 11.8865C18.0719 11.8271 18.1606 11.7591 18.2316 11.6742C18.2493 11.6573 18.2582 11.6403 18.267 11.6233C18.267 11.6488 18.2759 11.6827 18.2759 11.7167C18.3558 12.1412 18.4977 11.7167 18.4977 11.7167C18.4977 11.7167 18.4179 10.9186 19.2518 10.8931L19.2075 10.0526L19.2696 9.37334Z" fill="#EBBBA1"/>
<path d="M16.3152 8.73705C16.2709 8.75404 16.2265 8.70306 16.262 8.66907C16.4306 8.45666 16.8387 8.07431 17.5307 8.11679C18.1961 8.15927 18.2405 8.37169 18.7817 8.47365C18.9325 8.49914 18.9769 8.68607 18.8615 8.77103C18.7906 8.82201 18.6575 8.89848 18.5244 8.89848C18.0719 8.89848 17.8146 8.5926 17.3799 8.55862C17.0871 8.53313 16.7145 8.56711 16.3152 8.73705Z" fill="#EBBBA1"/>
<path d="M18.0541 11.5385C18.0541 11.5809 18.0541 11.6318 18.0364 11.6743C18.0186 11.7168 17.992 11.7592 17.9565 11.7932C17.8944 11.8611 17.8146 11.912 17.7347 11.963C17.575 12.0564 17.4242 12.1328 17.3 12.2347C17.1758 12.3366 17.0693 12.4639 17.0072 12.6083C16.9362 12.7526 16.8919 12.9224 16.8564 13.0922C16.8209 12.9224 16.8209 12.7356 16.8741 12.5573C16.9274 12.379 17.0338 12.2092 17.1847 12.0903C17.3355 11.9715 17.5129 11.8951 17.6726 11.8271C17.7525 11.7932 17.8323 11.7592 17.9033 11.7168C17.9388 11.6913 17.9654 11.6658 17.992 11.6403L18.0098 11.6149C18.0186 11.6064 18.0187 11.5979 18.0275 11.5894C18.0364 11.5809 18.0453 11.5639 18.0541 11.5385Z" fill="#272A24"/>
<path d="M21.2481 11.5385C21.257 11.5554 21.2659 11.5809 21.2747 11.5979C21.2836 11.6064 21.2836 11.6149 21.2925 11.6234L21.3102 11.6488C21.3368 11.6828 21.3634 11.7083 21.3989 11.7252C21.4699 11.7677 21.5498 11.8017 21.6296 11.8356C21.7893 11.9035 21.9668 11.9715 22.1176 12.0988C22.2684 12.2177 22.3837 12.3875 22.4281 12.5658C22.4813 12.7441 22.4813 12.9224 22.4458 13.1007C22.4104 12.9309 22.366 12.7611 22.295 12.6167C22.224 12.4639 22.1265 12.345 22.0022 12.2432C21.878 12.1413 21.7183 12.0649 21.5675 11.9715C21.4877 11.9205 21.4078 11.8696 21.3457 11.8017C21.3102 11.7677 21.2836 11.7252 21.2659 11.6828C21.2481 11.6318 21.2392 11.5809 21.2481 11.5385Z" fill="#272A24"/>
<path d="M19.7044 12.4809C19.4205 12.4809 19.2608 12.345 19.1543 12.2601C19.1011 12.2176 19.0745 12.1922 19.0567 12.1922C18.6752 12.1837 18.4091 12.0224 18.3204 11.7592C18.2671 11.6148 18.3825 11.428 18.4889 11.3007C18.4978 11.2837 18.5155 11.2837 18.5244 11.2837C18.5333 11.2837 18.551 11.2922 18.5599 11.3007C18.5688 11.3092 18.5688 11.3177 18.5688 11.3261C18.5599 11.479 18.5688 11.5978 18.6043 11.6743C18.6752 11.8186 18.8349 11.9035 19.0745 11.912C19.1987 11.912 19.2785 11.9799 19.3584 12.0478C19.4471 12.1242 19.5447 12.2007 19.7222 12.2007C19.8907 12.2007 19.9706 12.1327 20.0504 12.0733C20.1214 12.0224 20.2013 11.9629 20.3077 11.9629H20.3343C20.5295 11.9629 20.6803 11.8865 20.7957 11.7422C20.8489 11.6658 20.8844 11.5469 20.8933 11.3686C20.8933 11.3431 20.9199 11.3346 20.9376 11.3346C20.9465 11.3346 20.9643 11.3346 20.9731 11.3601C21.053 11.5129 21.1417 11.7252 21.0618 11.8695C20.9376 12.1158 20.6715 12.2601 20.3432 12.2601C20.3343 12.2601 20.3077 12.2601 20.3077 12.2601H20.2988C20.2811 12.2686 20.2634 12.2856 20.2279 12.311C20.1214 12.362 19.9706 12.4809 19.7044 12.4809Z" fill="#272A24"/>
<path d="M19.1365 11.2498C19.172 11.0715 19.1898 10.8932 19.1986 10.7149C19.1986 10.5366 19.1898 10.3668 19.1809 10.1885C19.172 10.0102 19.1543 9.83186 19.1631 9.64507C19.172 9.45828 19.1898 9.27149 19.2607 9.10168C19.2785 9.28847 19.3051 9.45828 19.3317 9.63658C19.3583 9.81488 19.3849 9.99318 19.3938 10.18C19.4027 10.3668 19.4027 10.5535 19.3672 10.7403C19.3317 10.9186 19.2607 11.1054 19.1365 11.2498Z" fill="#272A24"/>
<path d="M16.2797 8.48227C16.2353 8.49926 16.191 8.44828 16.2265 8.41429C16.395 8.21887 16.7854 7.94697 17.4863 7.99795C18.1606 8.04893 18.2049 8.25285 18.7639 8.35482C18.9147 8.38031 18.9946 8.47377 18.8703 8.55024C18.7994 8.60123 18.7106 8.63521 18.5776 8.62672C18.1162 8.61822 17.8944 8.3973 17.4508 8.34632C17.1492 8.32933 16.6878 8.33782 16.2797 8.48227Z" fill="#272A24"/>
<path d="M16.2708 13.4062V14.5949L17.8678 15.2911L17.0871 14.0515L16.2708 13.4062Z" fill="#EBBBA1"/>
<path d="M15.3925 7.78562L14.9666 6.94507L14.4609 7.03846L14.2923 7.65826L14.2568 8.60918L14.9577 9.84878L14.8868 10.5195L15.5167 10.8676L15.3747 9.9167L15.4191 8.51579L15.3925 7.78562Z" fill="#EBBBA1"/>
<path d="M16.2708 14.7648L16.6701 18.577L18.409 18.4496L18.1606 17.6175L18.3558 17.2355L19.5624 15.911L17.7791 15.2148L16.2708 14.7648Z" fill="white"/>
<path d="M18.1073 1.84241C18.1073 1.84241 15.0287 3.43011 15.3038 6.73287L15.0465 6.35929L14.9666 5.3829L15.3747 4.0584L16.4305 2.6405L17.4331 1.84241H18.1073Z" fill="white"/>
<path d="M10.85 20.2495C10.8145 20.8269 11.1073 24.4268 10.5395 25.072C10.4508 25.1739 10.2023 25.3522 9.95392 25.5305C9.62565 25.7598 11.6307 25.6409 11.6307 25.6409L11.4267 23.3825L10.85 20.2495Z" fill="#203456"/>
<path d="M16.0757 15.2062C16.0757 15.2062 14.39 16.1572 13.627 17.8977L13.3963 17.643L13.8488 16.7005L14.5852 15.843L15.8273 15.1383L16.0757 15.2062Z" fill="white"/>
<path d="M13.8044 16.5223C13.8044 16.5223 9.13769 18.4156 8.96912 18.8826C8.80055 19.3496 8.96912 19.6637 8.96912 19.6637L8.52551 19.1288L8.66747 18.6703L9.38611 18.1439L10.9387 17.3968L13.3874 16.361L13.6802 16.3779L13.8044 16.5223Z" fill="white"/>
<path d="M16.5814 9.14428L17.3532 8.90637L18.1872 9.03382L18.2937 9.33121L17.8235 9.3737H17.2113L16.5814 9.14428Z" fill="white"/>
<path d="M18.6664 9.32281C18.5155 9.16137 18.1074 8.81299 17.5662 8.83848C17.0428 8.87247 16.6879 9.03391 16.475 9.12738C16.4217 9.15287 16.4217 9.22085 16.4838 9.23784C16.7855 9.3398 17.4686 9.53523 18.1518 9.46726L17.9211 9.58622C17.8945 9.59471 17.9122 9.6372 17.9389 9.6287C18.0986 9.61171 18.4002 9.56072 18.6575 9.44177C18.693 9.41628 18.7019 9.3568 18.6664 9.32281ZM17.0517 9.0849C17.1049 9.05941 17.1936 9.02542 17.3089 8.99143C17.3267 8.98293 17.3444 8.99993 17.3356 9.01692C17.3267 9.04241 17.3267 9.0679 17.3267 9.09339C17.3267 9.15287 17.3444 9.20385 17.3711 9.24634C17.3799 9.25484 17.3711 9.26333 17.3622 9.26333C17.2557 9.23784 17.1404 9.19536 17.0428 9.13588C17.025 9.13588 17.025 9.10189 17.0517 9.0849ZM18.2405 9.27183C18.1873 9.28882 18.0897 9.30582 17.9744 9.31431C17.9566 9.31431 17.9477 9.29732 17.9566 9.28882C18.001 9.22934 18.0187 9.16137 18.0187 9.0849C18.0187 9.0764 18.0187 9.05941 18.0187 9.05091C18.0986 9.09339 18.1784 9.14437 18.2583 9.21235C18.276 9.22934 18.2671 9.26333 18.2405 9.27183Z" fill="#272A24"/>
<path d="M22.7741 9.13579L22.0111 8.90637L21.1682 9.03382L21.0706 9.33121L21.532 9.3737H22.153L22.7741 9.13579Z" fill="white"/>
<path d="M20.7513 9.45023C21.0086 9.56919 21.3014 9.62017 21.4699 9.63717C21.4965 9.63717 21.5054 9.60318 21.4877 9.59468L21.257 9.47572C21.9402 9.5437 22.6233 9.34827 22.9249 9.24631C22.9782 9.22932 22.9782 9.15284 22.9249 9.13585C22.7209 9.05088 22.366 8.88094 21.8337 8.85545C21.2925 8.82996 20.8844 9.17833 20.7336 9.33977C20.6892 9.36527 20.7069 9.42474 20.7513 9.45023ZM22.3483 9.14435C22.2507 9.20382 22.1442 9.24631 22.0289 9.2718C22.02 9.2718 22.0111 9.2633 22.0111 9.25481C22.0377 9.21232 22.0555 9.15284 22.0555 9.10186C22.0555 9.07637 22.0555 9.05088 22.0466 9.02539C22.0466 9.0084 22.0555 8.9914 22.0732 8.9999C22.1886 9.02539 22.2773 9.06787 22.3305 9.08487C22.366 9.09336 22.366 9.12735 22.3483 9.14435ZM21.1417 9.21232C21.2215 9.14435 21.3014 9.08487 21.3812 9.05088C21.3812 9.05938 21.3812 9.07637 21.3812 9.08487C21.3812 9.16134 21.399 9.22932 21.4433 9.28879C21.4522 9.29729 21.4433 9.31428 21.4256 9.31428C21.3102 9.30579 21.2126 9.28879 21.1594 9.2718C21.1239 9.2633 21.115 9.22931 21.1417 9.21232Z" fill="#272A24"/>
<path d="M19.7309 13.1858C20.423 13.1858 20.7158 13.2878 21.0351 13.2878C21.3102 13.2878 21.5763 13.1518 21.5763 13.1518C21.6385 13.1943 21.7538 13.1178 21.7715 13.0584C21.7893 12.9904 21.5586 12.8035 21.5409 12.8969C21.5231 12.9904 21.3191 13.1093 21.186 13.1093C21.044 13.1093 20.627 12.8035 20.3343 12.7865C20.2012 12.778 19.9616 12.8374 19.8285 12.8714C19.7664 12.8884 19.7043 12.8884 19.6334 12.8714C19.5003 12.8374 19.2607 12.778 19.1276 12.7865C18.8349 12.8035 18.4179 13.1093 18.2759 13.1093C18.134 13.1093 17.9388 12.9904 17.921 12.8969C17.9033 12.8035 17.6726 12.9904 17.6904 13.0584C17.7081 13.1263 17.8323 13.1943 17.8856 13.1518C17.8856 13.1518 18.1517 13.2878 18.4267 13.2878C18.7461 13.2878 19.0389 13.1858 19.7309 13.1858Z" fill="#272A24"/>
<path d="M20.9287 13.5252C20.9553 13.4997 20.9198 13.4572 20.8843 13.4742C20.4851 13.6357 20.0947 13.6867 19.7576 13.6782C19.4204 13.6867 19.0389 13.6442 18.6574 13.4912C18.6131 13.4742 18.5776 13.5252 18.6131 13.5592C18.7461 13.6952 18.9768 13.8906 19.314 13.9925C19.2962 14.001 19.2696 14.001 19.2518 14.0095C19.1809 14.035 19.1188 14.069 19.0478 14.103C18.8881 14.1965 18.9325 14.222 19.0833 14.1965C19.1543 14.188 19.2164 14.171 19.2873 14.1625C19.4204 14.1455 19.5535 14.137 19.6866 14.137C19.8197 14.137 19.9527 14.1455 20.0858 14.1625C20.1834 14.171 20.281 14.188 20.3875 14.2135C20.423 14.222 20.4407 14.1795 20.4141 14.1625C20.3342 14.103 20.2455 14.052 20.1479 14.018C20.5294 13.8991 20.7956 13.6612 20.9287 13.5252Z" fill="#272A24"/>
<path d="M14.2569 18.8401L13.3253 18.6533C13.1301 18.6109 13.0326 18.4071 13.1301 18.2458L13.3963 17.7618L13.7512 17.9062L14.8336 18.3052L14.6295 18.6788L14.2569 18.8401Z" fill="#203456"/>
<path d="M19.4027 16.2676C19.0478 16.5393 18.7284 16.8449 18.4711 17.193C18.3292 17.3713 18.3026 17.6091 18.3824 17.8213L18.6574 18.5175L20.6803 18.4921L21.0085 17.8468C21.1239 17.6175 21.0973 17.3459 20.9376 17.1506C20.6537 16.8025 20.2899 16.5223 19.8907 16.2506C19.7398 16.1572 19.5358 16.1657 19.4027 16.2676Z" fill="#BF3F4A"/>
<path d="M8.37466 20.1138C8.37466 20.1138 8.97796 20.5468 9.11104 21.6166C9.24412 22.6864 9.51028 20.9883 9.19976 20.3855C8.88924 19.7826 8.59646 19.6553 8.59646 19.6553L8.37466 20.1138Z" fill="#203456"/>
<path d="M19.6422 16.31C19.6422 16.31 20.4939 17.21 20.4407 17.6939C20.3786 18.1779 19.7753 18.509 19.7753 18.509H20.8311L21.319 17.6005L20.7246 16.8958C20.7246 16.8958 20.1568 16.3949 20.1302 16.3694C20.0947 16.3439 19.6511 16.1826 19.6511 16.1826V16.31H19.6422Z" fill="#A43447"/>
<path d="M23.1201 8.48227C23.1645 8.49926 23.2088 8.44828 23.1734 8.41429C23.0048 8.21887 22.6144 7.94697 21.9135 7.99795C21.2392 8.04893 21.1949 8.25285 20.6359 8.35482C20.4851 8.38031 20.4053 8.47377 20.5295 8.55024C20.6005 8.60123 20.6892 8.63521 20.8223 8.62672C21.2836 8.61822 21.5054 8.3973 21.949 8.34632C22.2507 8.32933 22.712 8.33782 23.1201 8.48227Z" fill="#272A24"/>
<path d="M12.376 25.5051C13.1567 25.5051 14.8956 25.556 15.2949 25.556H16.1377C16.5015 25.556 17.8944 25.5221 18.4179 25.5221C18.7816 25.5221 19.66 25.556 19.8551 25.556H20.698C20.9198 25.556 22.1796 25.5391 22.5079 25.5391C23.0136 25.5391 24.1581 25.556 24.4154 25.556H25.9858C26.1011 25.556 26.5358 25.556 26.6512 25.556H27.3875C27.4674 25.556 27.636 25.556 27.8134 25.556L28.6119 20.4109L28.7361 19.7062L27.9997 19.1967L22.9515 18.5854L18.7195 18.4496L15.7651 18.5854L12.7486 18.8826L11.1161 19.443L10.9032 20.0543L11.6751 25.5136C11.9501 25.5136 12.1985 25.5051 12.376 25.5051Z" fill="#E0DFDC"/>
<path d="M20.8932 18.4156L22.7652 18.577L22.9072 16.9977L23.0935 14.7648L21.6651 14.9855L19.935 15.9789L21.4078 17.643L20.8932 18.4156Z" fill="white"/>
<path d="M22.295 18.6619C22.295 18.6619 26.3318 19.3666 26.5536 21.2684C26.7399 22.9071 26.039 24.6901 22.2329 25.5985C21.3723 25.8023 27.7513 25.5476 27.7513 25.5476L28.5676 20.3939L28.5055 19.5618L27.4674 19.0185L24.1315 18.7213L22.295 18.6619Z" fill="#C3C3C3"/>
<path d="M22.4459 18.5769C22.4459 18.5769 11.4888 19.0779 10.9033 20.0627L10.85 19.6722L11.1694 19.375L12.1187 19.1373L14.2037 18.8826L17.5396 18.56L20.6892 18.526L22.4459 18.5769Z" fill="white"/>
<path d="M19.8375 23.6882C20.4744 23.6882 20.9908 23.2663 20.9908 22.7458C20.9908 22.2253 20.4744 21.8033 19.8375 21.8033C19.2005 21.8033 18.6841 22.2253 18.6841 22.7458C18.6841 23.2663 19.2005 23.6882 19.8375 23.6882Z" fill="#C3C3C3"/>
<path d="M24.6195 18.56L25.7729 18.2628C25.968 18.2204 26.0656 18.0166 25.968 17.8553L25.7019 17.3713L25.347 17.5157L24.3533 17.9826V18.3053L24.6195 18.56Z" fill="#203456"/>
<path d="M19.8552 23.8835C19.1543 23.8835 18.551 23.4335 18.4534 22.8392C18.4002 22.525 18.551 22.2788 18.6929 22.126C18.968 21.8118 19.4471 21.5911 19.8552 21.5911C20.2633 21.5911 20.7335 21.8118 21.0174 22.126C21.1505 22.2788 21.3102 22.525 21.257 22.8392C21.1594 23.4335 20.5561 23.8835 19.8552 23.8835ZM19.8552 21.8967C19.5447 21.8967 19.2519 22.0156 19.0656 22.2194C18.9059 22.3807 18.8349 22.5844 18.8526 22.7882C18.897 23.2382 19.3317 23.5778 19.8552 23.5778C20.3786 23.5778 20.8134 23.2382 20.8577 22.7882C20.8755 22.5844 20.8045 22.3807 20.6448 22.2194C20.4585 22.0156 20.1657 21.8967 19.8552 21.8967Z" fill="#272A24"/>
<path d="M33.7932 25.4202C32.8439 25.3948 31.8946 25.3693 30.9453 25.3523C32.4802 23.1873 33.2875 20.6741 33.2875 18.0421C33.2875 15.3252 32.4269 12.7186 30.7945 10.5111C29.2241 8.38851 27.0682 6.78382 24.5485 5.84988C24.584 5.34895 24.5751 4.95839 24.513 4.67821C24.4509 4.39802 24.1848 3.43012 23.333 2.58957C22.4458 1.71506 21.2481 1.27356 19.7665 1.27356C18.2937 1.27356 17.1048 1.70657 16.2354 2.55561C15.5433 3.23484 15.1885 4.04992 14.9578 4.67821C14.8513 4.97537 14.807 5.35744 14.8424 5.82441C12.305 6.74137 10.1314 8.34606 8.54326 10.4771C6.89305 12.6931 6.02358 15.3082 6.02358 18.0421C6.02358 20.6826 6.83094 23.1957 8.36582 25.3608C7.49635 25.3778 6.37847 25.4032 5.509 25.4287C5.30494 25.4372 5.30494 25.7259 5.509 25.7259C7.15921 25.7768 9.07558 25.8023 10.7258 25.8278C13.7423 25.8787 16.7588 25.9042 19.7753 25.9042C22.7918 25.9042 25.8084 25.8787 28.8249 25.8278C30.4839 25.8023 32.1519 25.7683 33.811 25.7174C33.9884 25.7174 33.9973 25.4287 33.7932 25.4202ZM24.4687 6.4527C24.4775 6.41874 24.513 6.39326 24.5485 6.41025C29.4637 8.31209 32.7463 12.9394 32.7463 18.0421C32.7463 19.3496 32.5334 20.6147 32.1253 21.8203C32.0809 21.9562 31.8769 21.9477 31.8503 21.8118L31.4066 19.8251C31.38 19.7147 31.38 19.5958 31.3978 19.477C31.4421 19.2307 31.4421 19.01 31.3623 18.8402C31.2824 18.6789 31.1494 18.5685 30.9542 18.5175C29.3749 18.0421 24.6372 15.427 24.2912 15.2403C24.0694 15.0365 23.8476 14.8582 23.6436 14.7138C23.3863 14.5355 23.2443 14.2469 23.2709 13.9497L23.3508 13.1771C23.6258 12.6507 23.8831 11.9884 24.0517 11.1818C24.0694 11.0885 24.1404 11.0035 24.2291 10.9696C24.3001 10.9356 24.3622 10.8932 24.4154 10.8422C24.655 10.6045 24.8147 10.1885 24.7969 9.95923C24.7969 9.89131 24.8147 9.81489 24.859 9.75546C25.4091 8.94887 25.3825 7.87059 25.2139 7.27627C25.1341 7.01306 25.0099 6.84326 24.8413 6.78382C24.7171 6.73288 24.584 6.73288 24.4598 6.78382C24.4421 6.79231 24.4332 6.78382 24.4332 6.78382C24.4332 6.78382 24.4243 6.77533 24.4243 6.75835C24.4421 6.63949 24.4509 6.54609 24.4687 6.4527ZM24.1049 18.4072L24.2469 18.5175C24.0251 18.4921 23.7944 18.4751 23.5726 18.4581C23.5282 18.4581 23.4129 18.4496 23.2621 18.4326C23.1201 18.4241 23.0225 18.3053 23.0314 18.1779C23.129 16.9383 23.1733 15.9195 23.2 15.3082C23.2088 15.1044 23.4572 14.994 23.6258 15.1214C23.8121 15.2657 24.0517 15.4695 24.3178 15.7327C25.0454 16.4374 25.4801 17.0317 25.5599 17.2525L24.167 17.8977C23.963 17.9996 23.9275 18.2713 24.1049 18.4072ZM24.3001 7.42909C24.3178 7.38664 24.513 7.01306 24.7082 7.08948C24.7526 7.10646 24.8236 7.19985 24.8679 7.36117C25.0099 7.8621 25.0808 8.91491 24.4598 9.69603C24.4332 9.72999 24.4154 9.78093 24.4243 9.82338C24.4509 9.96772 24.3356 10.4092 24.1493 10.5875C24.2025 10.18 24.238 9.76395 24.2469 9.33094C24.2469 9.22056 24.3178 9.11868 24.4243 9.08472L24.4332 9.07623C24.513 9.05076 24.5663 8.96585 24.5485 8.88095C24.4864 8.55831 24.6284 8.17625 24.7171 7.98097C24.7348 7.93852 24.726 7.88757 24.6816 7.8621C24.6639 7.84512 24.6372 7.84512 24.6195 7.84512C24.5929 7.84512 24.5751 7.85361 24.5574 7.87059C24.4864 7.92154 24.4154 7.97248 24.3356 8.02342C24.309 8.0404 24.2735 8.0404 24.2469 8.02342C24.2202 8.00644 24.2025 7.98097 24.2025 7.94701C24.2114 7.80267 24.2469 7.63286 24.3001 7.42909ZM15.2772 4.79707C15.5966 3.93105 16.4483 1.62167 19.7487 1.62167C21.1328 1.62167 22.2418 2.0292 23.058 2.83579C23.8387 3.60842 24.0872 4.49991 24.1404 4.75462C24.2912 5.42536 24.0694 6.74137 23.9275 7.47154C23.9009 7.5989 23.8831 7.70928 23.8654 7.78569C23.8387 7.89606 23.8387 8.00644 23.8476 8.11681C23.8476 8.15927 23.8565 8.20172 23.8565 8.23568C23.9896 9.89131 23.6791 11.2413 23.3951 12.0733C23.3153 12.3196 23.2177 12.5658 23.1112 12.795L23.0757 12.8629C22.8539 13.3299 22.5257 13.678 22.295 13.8903C22.2861 13.8988 22.2773 13.8988 22.2684 13.8903C22.2595 13.8903 22.2506 13.8818 22.2506 13.8733C22.2506 13.8054 22.2595 13.729 22.2595 13.6441C22.2595 13.6016 22.2418 13.5592 22.1974 13.5422C22.1353 13.5167 22.0643 13.5422 22.0466 13.6016C21.878 14.094 21.4078 15.2233 20.7779 15.2233C20.3254 15.2233 20.2189 15.011 20.1125 14.7988C20.0326 14.6289 19.9439 14.4591 19.6777 14.4591C19.3761 14.4591 19.2696 14.6629 19.172 14.8582C19.0656 15.0704 18.9591 15.2657 18.6131 15.2657C18.6042 15.2657 18.6042 15.2657 18.5953 15.2657C18.0009 15.2572 17.5041 14.0686 17.3178 13.5592C17.3 13.5167 17.2645 13.4912 17.2113 13.4912C17.2024 13.4912 17.1936 13.4912 17.1936 13.4912C17.1403 13.4997 17.1048 13.5422 17.1048 13.6016C17.1048 13.6356 17.1048 13.6695 17.1137 13.7035C17.1137 13.729 17.096 13.7375 17.0871 13.7375C17.0782 13.7375 17.0605 13.7459 17.0427 13.729C16.7854 13.5167 16.4305 13.1771 16.2265 12.778C15.9071 12.0564 15.703 11.2413 15.6143 10.3583C15.5256 9.46679 15.5877 8.69416 15.6232 8.32058C15.6321 8.23568 15.6409 8.15927 15.6587 8.07436C15.6675 7.98946 15.6675 7.90455 15.6321 7.81965C15.6232 7.78569 15.6054 7.74324 15.5877 7.70078C15.4369 7.25928 14.9667 5.6546 15.2772 4.79707ZM22.6765 16.3185L21.7982 17.3798C21.7272 17.4647 21.5941 17.4562 21.5409 17.3713C21.2392 16.9383 20.8311 16.5648 20.3343 16.2251C20.281 16.1912 20.2988 16.1063 20.3698 16.0978C20.9464 16.0129 21.4522 15.7412 21.7449 15.3931C21.9756 15.3167 22.2329 15.2148 22.4724 15.1129C22.641 15.045 22.8185 15.1638 22.8185 15.3336C22.8185 15.5035 22.783 15.9365 22.7652 16.1317C22.7386 16.2082 22.712 16.2676 22.6765 16.3185ZM22.7386 17.1081C22.7209 17.4647 22.6854 17.9062 22.641 18.3987C22.2861 18.3732 21.9579 18.3562 21.9046 18.3477C21.6562 18.3392 21.4078 18.3308 21.1594 18.3223C21.2304 18.2034 21.3013 18.0845 21.3457 18.0081C21.3812 17.9572 21.4522 17.9402 21.5054 17.9911C21.6296 18.11 21.8337 18.093 21.9401 17.9572L22.6055 17.0657C22.6499 17.0063 22.7386 17.0402 22.7386 17.1081ZM17.8944 17.4647C17.8412 17.5411 17.7259 17.5411 17.6638 17.4732L16.7322 16.4714C16.6346 16.361 16.5725 16.2336 16.5636 16.0893C16.537 15.8006 16.5193 15.5204 16.5015 15.2657C16.4927 15.1384 16.6435 15.0535 16.7588 15.1129C17.0782 15.2912 17.5041 15.4865 18.0009 15.6138C18.2405 15.8006 18.6397 15.9789 18.9946 16.0468C19.0833 16.0638 19.1099 16.1657 19.0478 16.2251C18.5953 16.6242 18.205 17.0402 17.8944 17.4647ZM18.2671 18.3223C18.1162 18.3308 17.9654 18.3308 17.8146 18.3392C17.7081 18.3477 17.2379 18.3732 16.8298 18.3987C16.7943 17.9996 16.7588 17.5072 16.7322 17.2525C16.7322 17.2015 16.8032 17.1761 16.8387 17.2185L17.4952 18.0081C17.6283 18.1609 17.8678 18.1694 18.0098 18.0251C18.0453 17.9826 18.1162 17.9911 18.1429 18.0421L18.2671 18.3223ZM15.011 18.1609L13.7068 17.7619C13.5649 17.7194 13.5028 17.5666 13.5826 17.4393C14.0528 16.6751 14.6827 15.9365 15.5877 15.4186C15.8361 15.2742 16.1555 15.427 16.1821 15.7072C16.2354 16.4119 16.3418 17.2864 16.4572 18.1355C16.4749 18.2883 16.3596 18.4241 16.1999 18.4411C16.191 18.4411 16.1821 18.4411 16.1733 18.4411C15.8361 18.4666 15.4901 18.5006 15.153 18.5345C15.2417 18.4072 15.1796 18.2119 15.011 18.1609ZM16.4217 13.9922L16.4039 13.8054C16.6257 14.1025 16.8919 14.4082 17.2113 14.6969C17.3 14.7733 17.371 14.8582 17.4331 14.9516C17.1048 14.7988 16.8475 14.6205 16.679 14.4761C16.5281 14.3573 16.4305 14.179 16.4217 13.9922ZM18.6397 17.3289C18.8792 17.0147 19.1632 16.7431 19.4914 16.4883C19.6156 16.3949 19.8019 16.3865 19.935 16.4714C20.2988 16.7091 20.6271 16.9723 20.8843 17.2864C21.0352 17.4647 21.0529 17.711 20.9464 17.9232L20.7513 18.3053C20.423 18.2968 20.0947 18.2968 19.7753 18.2968C19.4293 18.2968 19.0744 18.3053 18.7284 18.3053L18.5687 17.8977C18.48 17.711 18.5155 17.4987 18.6397 17.3289ZM22.5434 14.6289C22.437 14.6714 22.3394 14.7054 22.2329 14.7393C22.2329 14.7393 22.2329 14.7308 22.224 14.7308C22.224 14.7308 22.224 14.7308 22.2152 14.7223C22.3749 14.5695 22.6321 14.2978 22.9072 13.8903L22.8717 14.179C22.8717 14.3827 22.7386 14.5525 22.5434 14.6289ZM15.3038 7.99795C15.2949 8.02342 15.2772 8.0404 15.2594 8.04889C15.2328 8.05738 15.2062 8.05738 15.1796 8.04889C15.082 7.99795 14.9933 7.93852 14.9134 7.87059C14.8779 7.84512 14.8247 7.84512 14.7892 7.87059C14.7537 7.89606 14.736 7.94701 14.7537 7.98097C14.8513 8.19323 14.9933 8.59228 14.9134 8.9234C14.8957 8.99132 14.94 9.05925 15.011 9.07623C15.0199 9.07623 15.0199 9.07623 15.0288 9.07623C15.1264 9.11019 15.1973 9.20358 15.1973 9.30547C15.1973 9.67056 15.2062 10.0441 15.2417 10.4007C15.2506 10.4602 15.2506 10.5111 15.2594 10.5705C15.2594 10.579 15.2506 10.5875 15.2506 10.5875C15.2417 10.5875 15.2328 10.5875 15.2239 10.579C15.0376 10.4007 14.9312 9.95074 14.9489 9.8064C14.9578 9.75546 14.94 9.71301 14.9134 9.67056C14.3012 8.88944 14.3634 7.83663 14.5142 7.34419C14.5585 7.18287 14.6295 7.08948 14.6739 7.0725C14.6916 7.06401 14.7094 7.06401 14.7271 7.06401C14.9134 7.06401 15.0731 7.41211 15.082 7.41211C15.1441 7.57343 15.2683 7.89606 15.3038 7.99795ZM6.53816 18.0421C6.53816 12.9139 9.83858 8.27813 14.7981 6.39327C14.8424 6.37628 14.8957 6.40176 14.9045 6.4527C14.9134 6.52062 14.9312 6.60552 14.94 6.67345C14.9489 6.72439 14.9045 6.76684 14.8513 6.75835C14.7537 6.74137 14.6561 6.74986 14.5585 6.78382C14.39 6.85175 14.2658 7.02155 14.1859 7.27627C14.0085 7.87059 13.9819 8.90642 14.5142 9.7215C14.5763 9.8064 14.6029 9.91678 14.6029 10.0187C14.594 10.2734 14.7715 10.63 14.9933 10.8422C15.0465 10.8932 15.1086 10.9356 15.1707 10.9696C15.2772 11.0205 15.3482 11.1139 15.3659 11.2158C15.4546 11.7507 15.6143 12.4469 16.0136 13.1771L16.0845 14.145C16.1112 14.4506 15.9515 14.7393 15.6853 14.9006C15.1973 15.1893 14.7626 15.5035 14.3811 15.8601C13.139 16.3355 9.17318 17.8808 8.62311 18.4157C8.35694 18.6704 8.32145 18.9251 8.4013 19.1968C8.35694 19.443 8.06416 20.8269 7.56733 22.2278C7.52297 22.3467 7.3544 22.3467 7.31004 22.2278C6.80433 20.9033 6.53816 19.4939 6.53816 18.0421ZM8.79168 25.0551C8.41905 24.5372 8.09078 23.9854 7.80687 23.4165C7.68266 23.1703 7.67379 22.8901 7.77138 22.6354C8.13514 21.659 8.41018 20.6401 8.56987 19.9779C8.59649 19.876 8.72957 19.859 8.7828 19.9439C8.97799 20.2411 9.19092 20.5637 9.31513 20.9458C9.33287 21.0052 9.42159 20.9882 9.42159 20.9288C9.40385 20.5892 9.33287 20.1137 9.08445 19.7656C8.69408 19.2307 8.561 18.9336 8.86265 18.6449C9.23528 18.2883 11.6662 17.2779 13.4495 16.5732C13.556 16.5308 13.6447 16.6497 13.5826 16.7346C13.3697 17.0317 13.1834 17.3544 13.0325 17.694C12.9793 17.7874 13.0325 17.8977 13.139 17.9317L14.4432 18.3308C14.594 18.3817 14.5763 18.594 14.4166 18.6109C13.4229 18.7298 12.4292 18.8826 11.4533 19.0609C11.2315 19.1034 11.0274 19.2138 10.8855 19.3751C10.708 19.5873 10.6459 19.8505 10.6992 20.1137L11.4799 25.2929C11.2226 25.2929 10.9742 25.3014 10.7169 25.3014C10.2733 25.3099 9.82971 25.3183 9.37723 25.3268C9.13769 25.3438 8.92476 25.2419 8.79168 25.0551ZM11.8348 25.3014L11.0363 20.0543C11.0008 19.8845 11.0452 19.7147 11.1694 19.5873C11.2492 19.4939 11.3735 19.4345 11.5065 19.409C14.2391 18.8996 17.0161 18.6364 19.7753 18.6364C22.5346 18.6364 25.3115 18.8911 28.0441 19.409C28.1772 19.4345 28.3014 19.5024 28.3813 19.5873C28.4966 19.7147 28.5498 19.8845 28.5143 20.0543L27.6271 25.3014C25.001 25.2674 22.3749 25.2419 19.7487 25.2419C17.1137 25.2419 14.4698 25.2589 11.8348 25.3014ZM28.3192 25.3099C28.1417 25.3099 28.0175 25.157 28.0441 24.9957L28.8604 20.1222C28.9225 19.842 28.8337 19.5619 28.6297 19.3411C28.4966 19.1968 28.3103 19.1119 28.1062 19.0694C27.1214 18.8826 26.1277 18.7383 25.1341 18.6194C24.9744 18.6024 24.8236 18.5345 24.6993 18.4411L24.5929 18.3562C24.4864 18.2713 24.5042 18.1185 24.6284 18.0591C24.6284 18.0591 25.6753 17.6685 25.9148 17.4053C25.9947 17.3119 25.9503 17.1166 25.5866 16.6327C25.5688 16.6072 25.5422 16.5732 25.5244 16.5478C25.4446 16.4459 25.5688 16.31 25.6841 16.378C27.3166 17.2525 29.7653 18.5091 30.8477 18.8317C30.9719 18.8656 31.0163 18.9336 31.0429 18.976C31.1937 19.2987 30.8477 20.0713 30.5194 20.8184C30.2533 21.4128 29.9605 22.075 29.8097 22.7033C29.7919 22.7882 29.9073 22.8307 29.9516 22.7542C30.2089 22.2618 30.6259 21.4382 30.8388 20.9543C30.8832 20.8524 30.9276 20.759 30.9719 20.6571C31.0251 20.5383 31.2115 20.5552 31.2381 20.6826L31.6196 22.4231C31.6817 22.7118 31.6551 23.0175 31.522 23.2807C31.2292 23.8835 30.8921 24.4608 30.5106 25.0042C30.3686 25.2165 30.1202 25.3353 29.854 25.3268C29.4991 25.3183 29.1531 25.3183 28.7983 25.3099C28.6386 25.3099 28.4789 25.3099 28.3192 25.3099Z" fill="#272A24"/>
</g>
<path d="M45.0053 17.8844C44.5883 18.0457 43.71 18.2156 43.0002 18.2156C41.8912 18.2156 41.0484 17.9184 40.4096 17.2986C39.5756 16.5175 39.132 15.1505 39.1586 13.5458C39.203 10.1667 41.2169 8.76575 43.2752 8.76575C44.0116 8.76575 44.5528 8.90159 44.8633 9.04593L44.5351 10.5997C44.26 10.4638 43.8874 10.3874 43.4261 10.3874C42.1485 10.3874 41.1282 11.2365 41.1282 13.6477C41.1282 15.8807 42.0332 16.6873 42.9115 16.6873C43.0801 16.6873 43.2131 16.6703 43.2841 16.6363V14.4034H42.4147V12.926H45.0142V17.8844H45.0053Z" fill="white"/>
<path d="M46.4249 8.84326H48.3147V16.595H50.7988V18.1233H46.4249V8.84326Z" fill="white"/>
<path d="M57.2222 13.326C57.2222 16.8241 55.9268 18.242 54.0814 18.242C51.89 18.242 51.0206 16.0175 51.0206 13.4704C51.0206 10.9318 52.0763 8.74123 54.2234 8.74123C56.5568 8.73274 57.2222 11.195 57.2222 13.326ZM52.9813 13.4874C52.9813 15.593 53.3894 16.6712 54.1524 16.6712C54.9509 16.6712 55.2526 15.2873 55.2526 13.4109C55.2526 11.7723 54.9953 10.3035 54.1435 10.3035C53.3894 10.3035 52.9813 11.4921 52.9813 13.4874Z" fill="white"/>
<path d="M62.2349 16.0091L61.809 18.1317H59.9814L62.0841 8.84326H64.3464L66.2362 18.1233H64.3997L63.9827 16.0007H62.2349V16.0091ZM63.8141 14.6082L63.4947 12.6639C63.3971 12.1036 63.2729 11.1696 63.1753 10.5583H63.1398C63.0334 11.1781 62.8914 12.1375 62.7938 12.6724L62.4389 14.6082H63.8141Z" fill="white"/>
<path d="M71.7014 17.9861C71.4263 18.105 70.9029 18.2069 70.2463 18.2069C67.771 18.2069 66.5822 16.2541 66.5822 13.6221C66.5822 10.124 68.6139 8.75708 70.4948 8.75708C71.1602 8.75708 71.6215 8.88444 71.8167 9.0033L71.5062 10.5231C71.2844 10.4212 71.0448 10.3363 70.6278 10.3363C69.5543 10.3363 68.5873 11.2278 68.5873 13.5202C68.5873 15.7362 69.4656 16.6022 70.6101 16.6022C70.9295 16.6022 71.2932 16.5343 71.515 16.4664L71.7014 17.9861Z" fill="white"/>
<path d="M74.5051 16.0091L74.0793 18.1317H72.2516L74.3543 8.84326H76.6167L78.5064 18.1233H76.6699L76.2529 16.0007H74.5051V16.0091ZM76.0844 14.6082L75.765 12.6639C75.6674 12.1036 75.5432 11.1696 75.4456 10.5583H75.4101C75.3036 11.1781 75.1617 12.1375 75.0641 12.6724L74.7092 14.6082H76.0844Z" fill="white"/>
<path d="M79.5621 8.97859C80.0323 8.87671 80.7243 8.80029 81.4785 8.80029C82.7028 8.80029 83.5545 9.07199 84.1756 9.62386C85.0096 10.3371 85.4354 11.5682 85.4354 13.3681C85.4354 15.253 84.9297 16.5775 84.0869 17.2992C83.4215 17.902 82.4722 18.1992 81.1236 18.1992C80.5292 18.1992 79.9347 18.1397 79.5621 18.0973V8.97859ZM81.443 16.6964C81.5406 16.7218 81.6825 16.7218 81.7801 16.7218C82.6939 16.7218 83.4836 15.8728 83.4836 13.3087C83.4836 11.3984 82.969 10.2437 81.8245 10.2437C81.6914 10.2437 81.5672 10.2521 81.443 10.2861V16.6964Z" fill="white"/>
<path d="M90.7232 14.0479H88.5141V16.561H91.0071V18.1233H86.6243V8.84326H90.8385V10.4055H88.5141V12.5366H90.7232V14.0479Z" fill="white"/>
<path d="M98.229 14.8793C98.1758 13.9878 98.1226 12.7991 98.1403 11.7973H98.1048C97.9274 12.7906 97.6701 13.9368 97.4926 14.6585L96.6498 17.9698H95.3101L94.5027 14.7095C94.3164 13.9623 94.0591 12.8076 93.9083 11.7973H93.8728C93.8462 12.8076 93.7752 13.9793 93.7309 14.8963L93.5623 18.1141H91.9476L92.6485 8.83411H94.6358L95.4077 12.1963C95.6739 13.3765 95.9223 14.3953 96.0909 15.4481H96.1263C96.2772 14.4208 96.4901 13.368 96.7474 12.1963L97.5104 8.83411H99.4978L100.083 18.1141H98.3976L98.229 14.8793Z" fill="white"/>
<path d="M102.496 18.1226V14.5736L100.367 8.8426H102.381L103.038 11.0501C103.224 11.6529 103.401 12.3406 103.543 13.0199H103.57C103.694 12.3491 103.845 11.6784 104.022 11.0076L104.59 8.83411H106.542L104.377 14.4972V18.1226H102.496Z" fill="white"/>
<defs>
<filter id="filter0_d" x="0" y="0" width="39.2837" height="35.1947" filterUnits="userSpaceOnUse" color-interpolation-filters="sRGB">
<feFlood flood-opacity="0" result="BackgroundImageFix"/>
<feColorMatrix in="SourceAlpha" type="matrix" values="0 0 0 0 0 0 0 0 0 0 0 0 0 0 0 0 0 0 127 0"/>
<feOffset dy="4"/>
<feGaussianBlur stdDeviation="2"/>
<feColorMatrix type="matrix" values="0 0 0 0 0 0 0 0 0 0 0 0 0 0 0 0 0 0 0.25 0"/>
<feBlend mode="normal" in2="BackgroundImageFix" result="effect1_dropShadow"/>
<feBlend mode="normal" in="SourceGraphic" in2="effect1_dropShadow" result="shape"/>
</filter>
</defs>
</svg>
